<svg version="1.1" viewBox="0.0 0.0 600.0 371.0" fill="none" stroke="none" stroke-linecap="square" stroke-miterlimit="10" width="600" height="371" xmlns:xlink="http://www.w3.org/1999/xlink" xmlns="http://www.w3.org/2000/svg"><path fill="#ffffff" d="M0 0L600.0 0L600.0 371.0L0 371.0L0 0Z" fill-rule="nonzero"/><path stroke="#cccccc" stroke-width="1.0" stroke-linecap="butt" d="M115.5 25.5L115.5 332.5" fill-rule="nonzero"/><path stroke="#cccccc" stroke-width="1.0" stroke-linecap="butt" d="M193.5 25.5L193.5 332.5" fill-rule="nonzero"/><path stroke="#cccccc" stroke-width="1.0" stroke-linecap="butt" d="M270.5 25.5L270.5 332.5" fill-rule="nonzero"/><path stroke="#cccccc" stroke-width="1.0" stroke-linecap="butt" d="M348.5 25.5L348.5 332.5" fill-rule="nonzero"/><path stroke="#cccccc" stroke-width="1.0" stroke-linecap="butt" d="M426.5 25.5L426.5 332.5" fill-rule="nonzero"/><path stroke="#cccccc" stroke-width="1.0" stroke-linecap="butt" d="M503.5 25.5L503.5 332.5" fill-rule="nonzero"/><path stroke="#cccccc" stroke-width="1.0" stroke-linecap="butt" d="M581.5 25.5L581.5 332.5" fill-rule="nonzero"/><path stroke="#333333" stroke-width="1.0" stroke-linecap="butt" d="M45.5 332.5L581.5 332.5" fill-rule="nonzero"/><path stroke="#cccccc" stroke-width="1.0" stroke-linecap="butt" d="M45.5 255.5L581.5 255.5" fill-rule="nonzero"/><path stroke="#cccccc" stroke-width="1.0" stroke-linecap="butt" d="M45.5 179.5L581.5 179.5" fill-rule="nonzero"/><path stroke="#cccccc" stroke-width="1.0" stroke-linecap="butt" d="M45.5 102.5L581.5 102.5" fill-rule="nonzero"/><path stroke="#cccccc" stroke-width="1.0" stroke-linecap="butt" d="M45.5 25.5L581.5 25.5" fill-rule="nonzero"/><clipPath id="id_0"><path d="M45.55 25.55L581.45 25.55L581.45 332.45L45.55 332.45L45.55 25.55Z" clip-rule="nonzero"/></clipPath><path stroke="#4285f4" stroke-width="2.0" stroke-linecap="butt" clip-path="url(#id_0)" d="M45.55 25.55L53.316666 28.619L61.083332 31.65731L68.85 34.665237L76.61667 37.643085L84.38333 40.591152L92.15 43.509743L99.916664 46.399143L107.683334 49.259655L115.45 52.091557L123.21667 54.89514L130.98334 57.67069L138.75 60.418484L146.51666 63.138798L154.28334 65.83191L162.05 68.49809L169.81667 71.13761L177.58333 73.75073L185.35 76.33773L193.11667 78.89885L200.88333 81.434364L208.65 83.94452L216.41667 86.42957L224.18333 88.88978L231.95 91.32538L239.71666 93.736626L247.48334 96.12376L255.25 98.48702L263.01666 100.82665L270.78333 103.14288L278.55 105.43596L286.31668 107.70609L294.08334 109.95354L301.85 112.1785L309.61667 114.38122L317.38333 116.561905L325.15 118.72079L332.91666 120.85808L340.68332 122.97399L348.45 125.068756L356.21667 127.14257L363.98334 129.19565L371.75 131.22818L379.51666 133.2404L387.28333 135.2325L395.05 137.20468L402.81668 139.15714L410.58334 141.09006L418.35 143.00366L426.11667 144.89812L433.88333 146.77364L441.65 148.6304L449.41666 150.4686L457.18332 152.2884L464.95 154.09003L472.71667 155.87363L480.48334 157.63939L488.25 159.3875L496.01666 161.11812L503.78333 162.83144L511.55 164.52763L519.31665 166.20685L527.0833 167.86928L534.85 169.51509L542.61664 171.14444L550.38336 172.75749L558.15 174.35442L565.9167 175.93538L573.68335 177.50052L581.45 179.05002" fill-rule="nonzero"/><path fill="#000000" fill-opacity="0.0" clip-path="url(#id_0)" d="M48.55 25.55C48.55 27.206854 47.206856 28.55 45.55 28.55C43.893147 28.55 42.55 27.206854 42.55 25.55C42.55 23.893147 43.893147 22.55 45.55 22.55C47.206856 22.55 48.55 23.893147 48.55 25.55Z" fill-rule="nonzero"/><path fill="#000000" fill-opacity="0.0" clip-path="url(#id_0)" d="M56.316666 28.619C56.316666 30.275854 54.973522 31.619 53.316666 31.619C51.659813 31.619 50.316666 30.275854 50.316666 28.619C50.316666 26.962145 51.659813 25.619 53.316666 25.619C54.973522 25.619 56.316666 26.962145 56.316666 28.619Z" fill-rule="nonzero"/><path fill="#000000" fill-opacity="0.0" clip-path="url(#id_0)" d="M64.083336 31.65731C64.083336 33.314163 62.74019 34.65731 61.083332 34.65731C59.42648 34.65731 58.083332 33.314163 58.083332 31.65731C58.083332 30.000456 59.42648 28.65731 61.083332 28.65731C62.74019 28.65731 64.083336 30.000456 64.083336 31.65731Z" fill-rule="nonzero"/><path fill="#000000" fill-opacity="0.0" clip-path="url(#id_0)" d="M71.85 34.665237C71.85 36.32209 70.50685 37.665237 68.85 37.665237C67.193146 37.665237 65.85 36.32209 65.85 34.665237C65.85 33.00838 67.193146 31.665237 68.85 31.665237C70.50685 31.665237 71.85 33.00838 71.85 34.665237Z" fill-rule="nonzero"/><path fill="#000000" fill-opacity="0.0" clip-path="url(#id_0)" d="M79.61667 37.643085C79.61667 39.29994 78.27352 40.643085 76.61667 40.643085C74.959816 40.643085 73.61667 39.29994 73.61667 37.643085C73.61667 35.98623 74.959816 34.643085 76.61667 34.643085C78.27352 34.643085 79.61667 35.98623 79.61667 37.643085Z" fill-rule="nonzero"/><path fill="#000000" fill-opacity="0.0" clip-path="url(#id_0)" d="M87.38333 40.591152C87.38333 42.24801 86.040184 43.591152 84.38333 43.591152C82.72648 43.591152 81.38333 42.24801 81.38333 40.591152C81.38333 38.9343 82.72648 37.591152 84.38333 37.591152C86.040184 37.591152 87.38333 38.9343 87.38333 40.591152Z" fill-rule="nonzero"/><path fill="#000000" fill-opacity="0.0" clip-path="url(#id_0)" d="M95.15 43.509743C95.15 45.166595 93.806854 46.509743 92.15 46.509743C90.49315 46.509743 89.15 45.166595 89.15 43.509743C89.15 41.852886 90.49315 40.509743 92.15 40.509743C93.806854 40.509743 95.15 41.852886 95.15 43.509743Z" fill-rule="nonzero"/><path fill="#000000" fill-opacity="0.0" clip-path="url(#id_0)" d="M102.916664 46.399143C102.916664 48.056 101.573524 49.399143 99.916664 49.399143C98.25981 49.399143 96.916664 48.056 96.916664 46.399143C96.916664 44.74229 98.25981 43.399143 99.916664 43.399143C101.573524 43.399143 102.916664 44.74229 102.916664 46.399143Z" fill-rule="nonzero"/><path fill="#000000" fill-opacity="0.0" clip-path="url(#id_0)" d="M110.683334 49.259655C110.683334 50.916508 109.34019 52.259655 107.683334 52.259655C106.02648 52.259655 104.683334 50.916508 104.683334 49.259655C104.683334 47.6028 106.02648 46.259655 107.683334 46.259655C109.34019 46.259655 110.683334 47.6028 110.683334 49.259655Z" fill-rule="nonzero"/><path fill="#000000" fill-opacity="0.0" clip-path="url(#id_0)" d="M118.45 52.091557C118.45 53.74841 117.10686 55.091557 115.45 55.091557C113.793144 55.091557 112.45 53.74841 112.45 52.091557C112.45 50.434704 113.793144 49.091557 115.45 49.091557C117.10686 49.091557 118.45 50.434704 118.45 52.091557Z" fill-rule="nonzero"/><path fill="#000000" fill-opacity="0.0" clip-path="url(#id_0)" d="M126.21667 54.89514C126.21667 56.551994 124.87352 57.89514 123.21667 57.89514C121.559814 57.89514 120.21667 56.551994 120.21667 54.89514C120.21667 53.238285 121.559814 51.89514 123.21667 51.89514C124.87352 51.89514 126.21667 53.238285 126.21667 54.89514Z" fill-rule="nonzero"/><path fill="#000000" fill-opacity="0.0" clip-path="url(#id_0)" d="M133.98334 57.67069C133.98334 59.327545 132.64018 60.67069 130.98334 60.67069C129.32648 60.67069 127.98333 59.327545 127.98333 57.67069C127.98333 56.013836 129.32648 54.67069 130.98334 54.67069C132.64018 54.67069 133.98334 56.013836 133.98334 57.67069Z" fill-rule="nonzero"/><path fill="#000000" fill-opacity="0.0" clip-path="url(#id_0)" d="M141.75 60.418484C141.75 62.075336 140.40686 63.418484 138.75 63.418484C137.09314 63.418484 135.75 62.075336 135.75 60.418484C135.75 58.761627 137.09314 57.418484 138.75 57.418484C140.40686 57.418484 141.75 58.761627 141.75 60.418484Z" fill-rule="nonzero"/><path fill="#000000" fill-opacity="0.0" clip-path="url(#id_0)" d="M149.51666 63.138798C149.51666 64.795654 148.17352 66.1388 146.51666 66.1388C144.85982 66.1388 143.51666 64.795654 143.51666 63.138798C143.51666 61.481945 144.85982 60.138798 146.51666 60.138798C148.17352 60.138798 149.51666 61.481945 149.51666 63.138798Z" fill-rule="nonzero"/><path fill="#000000" fill-opacity="0.0" clip-path="url(#id_0)" d="M157.28334 65.83191C157.28334 67.48876 155.94019 68.83191 154.28334 68.83191C152.62648 68.83191 151.28334 67.48876 151.28334 65.83191C151.28334 64.17506 152.62648 62.83191 154.28334 62.83191C155.94019 62.83191 157.28334 64.17506 157.28334 65.83191Z" fill-rule="nonzero"/><path fill="#000000" fill-opacity="0.0" clip-path="url(#id_0)" d="M165.05 68.49809C165.05 70.154945 163.70685 71.49809 162.05 71.49809C160.39314 71.49809 159.05 70.154945 159.05 68.49809C159.05 66.84124 160.39314 65.49809 162.05 65.49809C163.70685 65.49809 165.05 66.84124 165.05 68.49809Z" fill-rule="nonzero"/><path fill="#000000" fill-opacity="0.0" clip-path="url(#id_0)" d="M172.81667 71.13761C172.81667 72.794464 171.47353 74.13761 169.81667 74.13761C168.1598 74.13761 166.81667 72.794464 166.81667 71.13761C166.81667 69.48076 168.1598 68.13761 169.81667 68.13761C171.47353 68.13761 172.81667 69.48076 172.81667 71.13761Z" fill-rule="nonzero"/><path fill="#000000" fill-opacity="0.0" clip-path="url(#id_0)" d="M180.58333 73.75073C180.58333 75.407585 179.24019 76.75073 177.58333 76.75073C175.92648 76.75073 174.58333 75.407585 174.58333 73.75073C174.58333 72.09388 175.92648 70.75073 177.58333 70.75073C179.24019 70.75073 180.58333 72.09388 180.58333 73.75073Z" fill-rule="nonzero"/><path fill="#000000" fill-opacity="0.0" clip-path="url(#id_0)" d="M188.35 76.33773C188.35 77.99458 187.00685 79.33773 185.35 79.33773C183.69315 79.33773 182.35 77.99458 182.35 76.33773C182.35 74.68087 183.69315 73.33773 185.35 73.33773C187.00685 73.33773 188.35 74.68087 188.35 76.33773Z" fill-rule="nonzero"/><path fill="#000000" fill-opacity="0.0" clip-path="url(#id_0)" d="M196.11667 78.89885C196.11667 80.5557 194.77351 81.89885 193.11667 81.89885C191.45981 81.89885 190.11667 80.5557 190.11667 78.89885C190.11667 77.242 191.45981 75.89885 193.11667 75.89885C194.77351 75.89885 196.11667 77.242 196.11667 78.89885Z" fill-rule="nonzero"/><path fill="#000000" fill-opacity="0.0" clip-path="url(#id_0)" d="M203.88333 81.434364C203.88333 83.09122 202.54019 84.434364 200.88333 84.434364C199.22649 84.434364 197.88333 83.09122 197.88333 81.434364C197.88333 79.777504 199.22649 78.434364 200.88333 78.434364C202.54019 78.434364 203.88333 79.777504 203.88333 81.434364Z" fill-rule="nonzero"/><path fill="#000000" fill-opacity="0.0" clip-path="url(#id_0)" d="M211.65 83.94452C211.65 85.60137 210.30685 86.94452 208.65 86.94452C206.99315 86.94452 205.65 85.60137 205.65 83.94452C205.65 82.28767 206.99315 80.94452 208.65 80.94452C210.30685 80.94452 211.65 82.28767 211.65 83.94452Z" fill-rule="nonzero"/><path fill="#000000" fill-opacity="0.0" clip-path="url(#id_0)" d="M219.41667 86.42957C219.41667 88.086426 218.07352 89.42957 216.41667 89.42957C214.75981 89.42957 213.41667 88.086426 213.41667 86.42957C213.41667 84.77272 214.75981 83.42957 216.41667 83.42957C218.07352 83.42957 219.41667 84.77272 219.41667 86.42957Z" fill-rule="nonzero"/><path fill="#000000" fill-opacity="0.0" clip-path="url(#id_0)" d="M227.18333 88.88978C227.18333 90.54663 225.8402 91.88978 224.18333 91.88978C222.52647 91.88978 221.18333 90.54663 221.18333 88.88978C221.18333 87.232925 222.52647 85.88978 224.18333 85.88978C225.8402 85.88978 227.18333 87.232925 227.18333 88.88978Z" fill-rule="nonzero"/><path fill="#000000" fill-opacity="0.0" clip-path="url(#id_0)" d="M234.95 91.32538C234.95 92.98223 233.60686 94.32538 231.95 94.32538C230.29315 94.32538 228.95 92.98223 228.95 91.32538C228.95 89.668526 230.29315 88.32538 231.95 88.32538C233.60686 88.32538 234.95 89.668526 234.95 91.32538Z" fill-rule="nonzero"/><path fill="#000000" fill-opacity="0.0" clip-path="url(#id_0)" d="M242.71666 93.736626C242.71666 95.39348 241.37352 96.736626 239.71666 96.736626C238.05981 96.736626 236.71666 95.39348 236.71666 93.736626C236.71666 92.07977 238.05981 90.736626 239.71666 90.736626C241.37352 90.736626 242.71666 92.07977 242.71666 93.736626Z" fill-rule="nonzero"/><path fill="#000000" fill-opacity="0.0" clip-path="url(#id_0)" d="M250.48334 96.12376C250.48334 97.78061 249.14018 99.12376 247.48334 99.12376C245.82648 99.12376 244.48334 97.78061 244.48334 96.12376C244.48334 94.4669 245.82648 93.12376 247.48334 93.12376C249.14018 93.12376 250.48334 94.4669 250.48334 96.12376Z" fill-rule="nonzero"/><path fill="#000000" fill-opacity="0.0" clip-path="url(#id_0)" d="M258.25 98.48702C258.25 100.143875 256.90686 101.48702 255.25 101.48702C253.59314 101.48702 252.25 100.143875 252.25 98.48702C252.25 96.83017 253.59314 95.48702 255.25 95.48702C256.90686 95.48702 258.25 96.83017 258.25 98.48702Z" fill-rule="nonzero"/><path fill="#000000" fill-opacity="0.0" clip-path="url(#id_0)" d="M266.01666 100.82665C266.01666 102.483505 264.67352 103.82665 263.01666 103.82665C261.3598 103.82665 260.01666 102.483505 260.01666 100.82665C260.01666 99.1698 261.3598 97.82665 263.01666 97.82665C264.67352 97.82665 266.01666 99.1698 266.01666 100.82665Z" fill-rule="nonzero"/><path fill="#000000" fill-opacity="0.0" clip-path="url(#id_0)" d="M273.78333 103.14288C273.78333 104.799736 272.4402 106.14288 270.78333 106.14288C269.12646 106.14288 267.78333 104.799736 267.78333 103.14288C267.78333 101.48603 269.12646 100.14288 270.78333 100.14288C272.4402 100.14288 273.78333 101.48603 273.78333 103.14288Z" fill-rule="nonzero"/><path fill="#000000" fill-opacity="0.0" clip-path="url(#id_0)" d="M281.55 105.43596C281.55 107.09281 280.20685 108.43596 278.55 108.43596C276.89316 108.43596 275.55 107.09281 275.55 105.43596C275.55 103.7791 276.89316 102.43596 278.55 102.43596C280.20685 102.43596 281.55 103.7791 281.55 105.43596Z" fill-rule="nonzero"/><path fill="#000000" fill-opacity="0.0" clip-path="url(#id_0)" d="M289.31668 107.70609C289.31668 109.36295 287.9735 110.70609 286.31668 110.70609C284.65982 110.70609 283.31668 109.36295 283.31668 107.70609C283.31668 106.04924 284.65982 104.70609 286.31668 104.70609C287.9735 104.70609 289.31668 106.04924 289.31668 107.70609Z" fill-rule="nonzero"/><path fill="#000000" fill-opacity="0.0" clip-path="url(#id_0)" d="M297.08334 109.95354C297.08334 111.61039 295.74017 112.95354 294.08334 112.95354C292.42648 112.95354 291.08334 111.61039 291.08334 109.95354C291.08334 108.296684 292.42648 106.95354 294.08334 106.95354C295.74017 106.95354 297.08334 108.296684 297.08334 109.95354Z" fill-rule="nonzero"/><path fill="#000000" fill-opacity="0.0" clip-path="url(#id_0)" d="M304.85 112.1785C304.85 113.83535 303.50687 115.1785 301.85 115.1785C300.19315 115.1785 298.85 113.83535 298.85 112.1785C298.85 110.521645 300.19315 109.1785 301.85 109.1785C303.50687 109.1785 304.85 110.521645 304.85 112.1785Z" fill-rule="nonzero"/><path fill="#000000" fill-opacity="0.0" clip-path="url(#id_0)" d="M312.61667 114.38122C312.61667 116.03807 311.27353 117.38122 309.61667 117.38122C307.9598 117.38122 306.61667 116.03807 306.61667 114.38122C306.61667 112.72436 307.9598 111.38122 309.61667 111.38122C311.27353 111.38122 312.61667 112.72436 312.61667 114.38122Z" fill-rule="nonzero"/><path fill="#000000" fill-opacity="0.0" clip-path="url(#id_0)" d="M320.38333 116.561905C320.38333 118.21876 319.0402 119.561905 317.38333 119.561905C315.72647 119.561905 314.38333 118.21876 314.38333 116.561905C314.38333 114.905045 315.72647 113.561905 317.38333 113.561905C319.0402 113.561905 320.38333 114.905045 320.38333 116.561905Z" fill-rule="nonzero"/><path fill="#000000" fill-opacity="0.0" clip-path="url(#id_0)" d="M328.15 118.72079C328.15 120.37764 326.80685 121.72079 325.15 121.72079C323.49313 121.72079 322.15 120.37764 322.15 118.72079C322.15 117.06393 323.49313 115.72079 325.15 115.72079C326.80685 115.72079 328.15 117.06393 328.15 118.72079Z" fill-rule="nonzero"/><path fill="#000000" fill-opacity="0.0" clip-path="url(#id_0)" d="M335.91666 120.85808C335.91666 122.51493 334.57352 123.85808 332.91666 123.85808C331.25983 123.85808 329.91666 122.51493 329.91666 120.85808C329.91666 119.20122 331.25983 117.85808 332.91666 117.85808C334.57352 117.85808 335.91666 119.20122 335.91666 120.85808Z" fill-rule="nonzero"/><path fill="#000000" fill-opacity="0.0" clip-path="url(#id_0)" d="M343.68332 122.97399C343.68332 124.63085 342.34018 125.97399 340.68332 125.97399C339.0265 125.97399 337.68332 124.63085 337.68332 122.97399C337.68332 121.31714 339.0265 119.97399 340.68332 119.97399C342.34018 119.97399 343.68332 121.31714 343.68332 122.97399Z" fill-rule="nonzero"/><path fill="#000000" fill-opacity="0.0" clip-path="url(#id_0)" d="M351.45 125.068756C351.45 126.72561 350.10684 128.06876 348.45 128.06876C346.79315 128.06876 345.45 126.72561 345.45 125.068756C345.45 123.4119 346.79315 122.068756 348.45 122.068756C350.10684 122.068756 351.45 123.4119 351.45 125.068756Z" fill-rule="nonzero"/><path fill="#000000" fill-opacity="0.0" clip-path="url(#id_0)" d="M359.21667 127.14257C359.21667 128.79942 357.87354 130.14256 356.21667 130.14256C354.5598 130.14256 353.21667 128.79942 353.21667 127.14257C353.21667 125.48571 354.5598 124.14257 356.21667 124.14257C357.87354 124.14257 359.21667 125.48571 359.21667 127.14257Z" fill-rule="nonzero"/><path fill="#000000" fill-opacity="0.0" clip-path="url(#id_0)" d="M366.98334 129.19565C366.98334 130.8525 365.6402 132.19565 363.98334 132.19565C362.32648 132.19565 360.98334 130.8525 360.98334 129.19565C360.98334 127.53879 362.32648 126.19564 363.98334 126.19564C365.6402 126.19564 366.98334 127.53879 366.98334 129.19565Z" fill-rule="nonzero"/><path fill="#000000" fill-opacity="0.0" clip-path="url(#id_0)" d="M374.75 131.22818C374.75 132.88504 373.40686 134.22818 371.75 134.22818C370.09314 134.22818 368.75 132.88504 368.75 131.22818C368.75 129.57133 370.09314 128.22818 371.75 128.22818C373.40686 128.22818 374.75 129.57133 374.75 131.22818Z" fill-rule="nonzero"/><path fill="#000000" fill-opacity="0.0" clip-path="url(#id_0)" d="M382.51666 133.2404C382.51666 134.89726 381.17352 136.2404 379.51666 136.2404C377.8598 136.2404 376.51666 134.89726 376.51666 133.2404C376.51666 131.58354 377.8598 130.2404 379.51666 130.2404C381.17352 130.2404 382.51666 131.58354 382.51666 133.2404Z" fill-rule="nonzero"/><path fill="#000000" fill-opacity="0.0" clip-path="url(#id_0)" d="M390.28333 135.2325C390.28333 136.88936 388.9402 138.2325 387.28333 138.2325C385.62646 138.2325 384.28333 136.88936 384.28333 135.2325C384.28333 133.57564 385.62646 132.2325 387.28333 132.2325C388.9402 132.2325 390.28333 133.57564 390.28333 135.2325Z" fill-rule="nonzero"/><path fill="#000000" fill-opacity="0.0" clip-path="url(#id_0)" d="M398.05 137.20468C398.05 138.86153 396.70685 140.20468 395.05 140.20468C393.39316 140.20468 392.05 138.86153 392.05 137.20468C392.05 135.54782 393.39316 134.20468 395.05 134.20468C396.70685 134.20468 398.05 135.54782 398.05 137.20468Z" fill-rule="nonzero"/><path fill="#000000" fill-opacity="0.0" clip-path="url(#id_0)" d="M405.81668 139.15714C405.81668 140.81398 404.4735 142.15714 402.81668 142.15714C401.15982 142.15714 399.81668 140.81398 399.81668 139.15714C399.81668 137.50027 401.15982 136.15714 402.81668 136.15714C404.4735 136.15714 405.81668 137.50027 405.81668 139.15714Z" fill-rule="nonzero"/><path fill="#000000" fill-opacity="0.0" clip-path="url(#id_0)" d="M413.58334 141.09006C413.58334 142.74692 412.24017 144.09006 410.58334 144.09006C408.92648 144.09006 407.58334 142.74692 407.58334 141.09006C407.58334 139.4332 408.92648 138.09006 410.58334 138.09006C412.24017 138.09006 413.58334 139.4332 413.58334 141.09006Z" fill-rule="nonzero"/><path fill="#000000" fill-opacity="0.0" clip-path="url(#id_0)" d="M421.35 143.00366C421.35 144.6605 420.00687 146.00366 418.35 146.00366C416.69315 146.00366 415.35 144.6605 415.35 143.00366C415.35 141.3468 416.69315 140.00366 418.35 140.00366C420.00687 140.00366 421.35 141.3468 421.35 143.00366Z" fill-rule="nonzero"/><path fill="#000000" fill-opacity="0.0" clip-path="url(#id_0)" d="M429.11667 144.89812C429.11667 146.55498 427.77353 147.89812 426.11667 147.89812C424.4598 147.89812 423.11667 146.55498 423.11667 144.89812C423.11667 143.24127 424.4598 141.89812 426.11667 141.89812C427.77353 141.89812 429.11667 143.24127 429.11667 144.89812Z" fill-rule="nonzero"/><path fill="#000000" fill-opacity="0.0" clip-path="url(#id_0)" d="M436.88333 146.77364C436.88333 148.4305 435.5402 149.77364 433.88333 149.77364C432.22647 149.77364 430.88333 148.4305 430.88333 146.77364C430.88333 145.11679 432.22647 143.77364 433.88333 143.77364C435.5402 143.77364 436.88333 145.11679 436.88333 146.77364Z" fill-rule="nonzero"/><path fill="#000000" fill-opacity="0.0" clip-path="url(#id_0)" d="M444.65 148.6304C444.65 150.28726 443.30685 151.6304 441.65 151.6304C439.99313 151.6304 438.65 150.28726 438.65 148.6304C438.65 146.97354 439.99313 145.6304 441.65 145.6304C443.30685 145.6304 444.65 146.97354 444.65 148.6304Z" fill-rule="nonzero"/><path fill="#000000" fill-opacity="0.0" clip-path="url(#id_0)" d="M452.41666 150.4686C452.41666 152.12546 451.07352 153.4686 449.41666 153.4686C447.75983 153.4686 446.41666 152.12546 446.41666 150.4686C446.41666 148.81174 447.75983 147.4686 449.41666 147.4686C451.07352 147.4686 452.41666 148.81174 452.41666 150.4686Z" fill-rule="nonzero"/><path fill="#000000" fill-opacity="0.0" clip-path="url(#id_0)" d="M460.18332 152.2884C460.18332 153.94527 458.84018 155.2884 457.18332 155.2884C455.5265 155.2884 454.18332 153.94527 454.18332 152.2884C454.18332 150.63156 455.5265 149.2884 457.18332 149.2884C458.84018 149.2884 460.18332 150.63156 460.18332 152.2884Z" fill-rule="nonzero"/><path fill="#000000" fill-opacity="0.0" clip-path="url(#id_0)" d="M467.95 154.09003C467.95 155.74689 466.60684 157.09003 464.95 157.09003C463.29315 157.09003 461.95 155.74689 461.95 154.09003C461.95 152.43317 463.29315 151.09003 464.95 151.09003C466.60684 151.09003 467.95 152.43317 467.95 154.09003Z" fill-rule="nonzero"/><path fill="#000000" fill-opacity="0.0" clip-path="url(#id_0)" d="M475.71667 155.87363C475.71667 157.53049 474.37354 158.87363 472.71667 158.87363C471.0598 158.87363 469.71667 157.53049 469.71667 155.87363C469.71667 154.21677 471.0598 152.87363 472.71667 152.87363C474.37354 152.87363 475.71667 154.21677 475.71667 155.87363Z" fill-rule="nonzero"/><path fill="#000000" fill-opacity="0.0" clip-path="url(#id_0)" d="M483.48334 157.63939C483.48334 159.29625 482.1402 160.63939 480.48334 160.63939C478.82648 160.63939 477.48334 159.29625 477.48334 157.63939C477.48334 155.98254 478.82648 154.63939 480.48334 154.63939C482.1402 154.63939 483.48334 155.98254 483.48334 157.63939Z" fill-rule="nonzero"/><path fill="#000000" fill-opacity="0.0" clip-path="url(#id_0)" d="M491.25 159.3875C491.25 161.04436 489.90686 162.3875 488.25 162.3875C486.59314 162.3875 485.25 161.04436 485.25 159.3875C485.25 157.73064 486.59314 156.3875 488.25 156.3875C489.90686 156.3875 491.25 157.73064 491.25 159.3875Z" fill-rule="nonzero"/><path fill="#000000" fill-opacity="0.0" clip-path="url(#id_0)" d="M499.01666 161.11812C499.01666 162.77498 497.67352 164.11812 496.01666 164.11812C494.3598 164.11812 493.01666 162.77498 493.01666 161.11812C493.01666 159.46127 494.3598 158.11812 496.01666 158.11812C497.67352 158.11812 499.01666 159.46127 499.01666 161.11812Z" fill-rule="nonzero"/><path fill="#000000" fill-opacity="0.0" clip-path="url(#id_0)" d="M506.78333 162.83144C506.78333 164.4883 505.4402 165.83144 503.78333 165.83144C502.12646 165.83144 500.78333 164.4883 500.78333 162.83144C500.78333 161.17459 502.12646 159.83144 503.78333 159.83144C505.4402 159.83144 506.78333 161.17459 506.78333 162.83144Z" fill-rule="nonzero"/><path fill="#000000" fill-opacity="0.0" clip-path="url(#id_0)" d="M514.55 164.52763C514.55 166.18448 513.20685 167.52763 511.55 167.52763C509.89316 167.52763 508.55 166.18448 508.55 164.52763C508.55 162.87077 509.89316 161.52763 511.55 161.52763C513.20685 161.52763 514.55 162.87077 514.55 164.52763Z" fill-rule="nonzero"/><path fill="#000000" fill-opacity="0.0" clip-path="url(#id_0)" d="M522.31665 166.20685C522.31665 167.86371 520.9735 169.20685 519.31665 169.20685C517.6598 169.20685 516.31665 167.86371 516.31665 166.20685C516.31665 164.55 517.6598 163.20685 519.31665 163.20685C520.9735 163.20685 522.31665 164.55 522.31665 166.20685Z" fill-rule="nonzero"/><path fill="#000000" fill-opacity="0.0" clip-path="url(#id_0)" d="M530.0833 167.86928C530.0833 169.52614 528.7402 170.86928 527.0833 170.86928C525.42645 170.86928 524.0833 169.52614 524.0833 167.86928C524.0833 166.21243 525.42645 164.86928 527.0833 164.86928C528.7402 164.86928 530.0833 166.21243 530.0833 167.86928Z" fill-rule="nonzero"/><path fill="#000000" fill-opacity="0.0" clip-path="url(#id_0)" d="M537.85 169.51509C537.85 171.17194 536.50684 172.51509 534.85 172.51509C533.1931 172.51509 531.85 171.17194 531.85 169.51509C531.85 167.85823 533.1931 166.51509 534.85 166.51509C536.50684 166.51509 537.85 167.85823 537.85 169.51509Z" fill-rule="nonzero"/><path fill="#000000" fill-opacity="0.0" clip-path="url(#id_0)" d="M545.61664 171.14444C545.61664 172.80128 544.2735 174.14444 542.61664 174.14444C540.95984 174.14444 539.61664 172.80128 539.61664 171.14444C539.61664 169.48758 540.95984 168.14444 542.61664 168.14444C544.2735 168.14444 545.61664 169.48758 545.61664 171.14444Z" fill-rule="nonzero"/><path fill="#000000" fill-opacity="0.0" clip-path="url(#id_0)" d="M553.38336 172.75749C553.38336 174.41435 552.04016 175.75749 550.38336 175.75749C548.7265 175.75749 547.38336 174.41435 547.38336 172.75749C547.38336 171.10065 548.7265 169.75749 550.38336 169.75749C552.04016 169.75749 553.38336 171.10065 553.38336 172.75749Z" fill-rule="nonzero"/><path fill="#000000" fill-opacity="0.0" clip-path="url(#id_0)" d="M561.15 174.35442C561.15 176.01128 559.8069 177.35442 558.15 177.35442C556.49316 177.35442 555.15 176.01128 555.15 174.35442C555.15 172.69757 556.49316 171.35442 558.15 171.35442C559.8069 171.35442 561.15 172.69757 561.15 174.35442Z" fill-rule="nonzero"/><path fill="#000000" fill-opacity="0.0" clip-path="url(#id_0)" d="M568.9167 175.93538C568.9167 177.59222 567.57355 178.93538 565.9167 178.93538C564.2598 178.93538 562.9167 177.59222 562.9167 175.93538C562.9167 174.27852 564.2598 172.93538 565.9167 172.93538C567.57355 172.93538 568.9167 174.27852 568.9167 175.93538Z" fill-rule="nonzero"/><path fill="#000000" fill-opacity="0.0" clip-path="url(#id_0)" d="M576.68335 177.50052C576.68335 179.15738 575.3402 180.50052 573.68335 180.50052C572.0265 180.50052 570.68335 179.15738 570.68335 177.50052C570.68335 175.84367 572.0265 174.50052 573.68335 174.50052C575.3402 174.50052 576.68335 175.84367 576.68335 177.50052Z" fill-rule="nonzero"/><path fill="#000000" fill-opacity="0.0" clip-path="url(#id_0)" d="M584.45 179.05002C584.45 180.70686 583.1069 182.05002 581.45 182.05002C579.79315 182.05002 578.45 180.70686 578.45 179.05002C578.45 177.39316 579.79315 176.05002 581.45 176.05002C583.1069 176.05002 584.45 177.39316 584.45 179.05002Z" fill-rule="nonzero"/><path fill="#000000" d="M33.05 332.21564Q33.05 330.6844 33.3625 329.7625Q33.675 328.825 34.284374 328.325Q34.909374 327.825 35.846874 327.825Q36.534374 327.825 37.05 328.10626Q37.58125 328.3875 37.925 328.91876Q38.26875 329.4344 38.45625 330.1844Q38.64375 330.9344 38.64375 332.21564Q38.64375 333.73126 38.33125 334.65314Q38.034374 335.575 37.409374 336.09064Q36.8 336.59064 35.846874 336.59064Q34.6125 336.59064 33.89375 335.7Q33.05 334.6375 33.05 332.21564ZM34.128124 332.21564Q34.128124 334.325 34.628124 335.02814Q35.128124 335.73126 35.846874 335.73126Q36.58125 335.73126 37.065624 335.02814Q37.565624 334.325 37.565624 332.21564Q37.565624 330.09064 37.065624 329.40314Q36.58125 328.7 35.83125 328.7Q35.1125 328.7 34.675 329.3094Q34.128124 330.09064 34.128124 332.21564Z" fill-rule="nonzero"/><path fill="#000000" d="M31.596874 258.70938L31.596874 259.725L25.909374 259.725Q25.909374 259.35 26.034374 258.99063Q26.253124 258.4125 26.721874 257.85Q27.20625 257.2875 28.1125 256.55313Q29.51875 255.39688 30.003124 254.725Q30.503124 254.05313 30.503124 253.45938Q30.503124 252.83438 30.05 252.4125Q29.596874 251.975 28.878124 251.975Q28.1125 251.975 27.659374 252.42813Q27.20625 252.88126 27.190624 253.69376L26.1125 253.58438Q26.221874 252.36563 26.940624 251.74063Q27.675 251.1 28.909374 251.1Q30.14375 251.1 30.8625 251.7875Q31.58125 252.475 31.58125 253.49063Q31.58125 254.00626 31.3625 254.50626Q31.159374 254.99063 30.659374 255.55313Q30.175 256.1 29.05 257.05313Q28.096874 257.85 27.815624 258.14688Q27.55 258.42813 27.378124 258.70938L31.596874 258.70938ZM33.05 257.475L34.159374 257.38126Q34.284374 258.19376 34.721874 258.6Q35.175 259.00626 35.815624 259.00626Q36.565624 259.00626 37.096874 258.42813Q37.628124 257.85 37.628124 256.9125Q37.628124 256.00626 37.1125 255.49063Q36.6125 254.95938 35.784374 254.95938Q35.284374 254.95938 34.8625 255.19376Q34.45625 255.42813 34.221874 255.7875L33.2375 255.6625L34.065624 251.25626L38.346874 251.25626L38.346874 252.25626L34.909374 252.25626L34.45625 254.56876Q35.221874 254.02188 36.065624 254.02188Q37.190624 254.02188 37.95625 254.80313Q38.7375 255.58438 38.7375 256.81876Q38.7375 257.975 38.065624 258.83438Q37.2375 259.86563 35.815624 259.86563Q34.64375 259.86563 33.89375 259.20938Q33.159374 258.55313 33.05 257.475Z" fill-rule="nonzero"/><path fill="#000000" d="M26.05 180.75L27.159374 180.65625Q27.284374 181.46875 27.721874 181.875Q28.175 182.28125 28.815624 182.28125Q29.565624 182.28125 30.096874 181.70312Q30.628124 181.125 30.628124 180.1875Q30.628124 179.28125 30.1125 178.76562Q29.6125 178.23438 28.784374 178.23438Q28.284374 178.23438 27.8625 178.46875Q27.45625 178.70312 27.221874 179.0625L26.2375 178.9375L27.065624 174.53125L31.346874 174.53125L31.346874 175.53125L27.909374 175.53125L27.45625 177.84375Q28.221874 177.29688 29.065624 177.29688Q30.190624 177.29688 30.95625 178.07812Q31.7375 178.85938 31.7375 180.09375Q31.7375 181.25 31.065624 182.10938Q30.2375 183.14062 28.815624 183.14062Q27.64375 183.14062 26.89375 182.48438Q26.159374 181.82812 26.05 180.75ZM33.05 178.76562Q33.05 177.23438 33.3625 176.3125Q33.675 175.375 34.284374 174.875Q34.909374 174.375 35.846874 174.375Q36.534374 174.375 37.05 174.65625Q37.58125 174.9375 37.925 175.46875Q38.26875 175.98438 38.45625 176.73438Q38.64375 177.48438 38.64375 178.76562Q38.64375 180.28125 38.33125 181.20312Q38.034374 182.125 37.409374 182.64062Q36.8 183.14062 35.846874 183.14062Q34.6125 183.14062 33.89375 182.25Q33.05 181.1875 33.05 178.76562ZM34.128124 178.76562Q34.128124 180.875 34.628124 181.57812Q35.128124 182.28125 35.846874 182.28125Q36.58125 182.28125 37.065624 181.57812Q37.565624 180.875 37.565624 178.76562Q37.565624 176.64062 37.065624 175.95312Q36.58125 175.25 35.83125 175.25Q35.1125 175.25 34.675 175.85938Q34.128124 176.64062 34.128124 178.76562Z" fill-rule="nonzero"/><path fill="#000000" d="M26.1125 98.80625L26.1125 97.79063L31.675 97.79063L31.675 98.61875Q30.8625 99.49375 30.05 100.94688Q29.253124 102.38438 28.815624 103.91563Q28.4875 104.99375 28.409374 106.275L27.315624 106.275Q27.33125 105.25938 27.70625 103.82188Q28.096874 102.38438 28.8 101.05625Q29.51875 99.72813 30.33125 98.80625L26.1125 98.80625ZM33.05 104.025L34.159374 103.93125Q34.284374 104.74375 34.721874 105.15Q35.175 105.55625 35.815624 105.55625Q36.565624 105.55625 37.096874 104.97813Q37.628124 104.4 37.628124 103.4625Q37.628124 102.55625 37.1125 102.04063Q36.6125 101.50938 35.784374 101.50938Q35.284374 101.50938 34.8625 101.74375Q34.45625 101.97813 34.221874 102.3375L33.2375 102.2125L34.065624 97.80625L38.346874 97.80625L38.346874 98.80625L34.909374 98.80625L34.45625 101.11875Q35.221874 100.57188 36.065624 100.57188Q37.190624 100.57188 37.95625 101.35313Q38.7375 102.13438 38.7375 103.36875Q38.7375 104.525 38.065624 105.38438Q37.2375 106.41563 35.815624 106.41563Q34.64375 106.41563 33.89375 105.75938Q33.159374 105.10313 33.05 104.025Z" fill-rule="nonzero"/><path fill="#000000" d="M23.01875 29.55L21.971874 29.55L21.971874 22.83125Q21.58125 23.190624 20.95625 23.565624Q20.346874 23.925 19.8625 24.096874L19.8625 23.08125Q20.7375 22.659374 21.39375 22.08125Q22.065624 21.4875 22.346874 20.925L23.01875 20.925L23.01875 29.55ZM26.05 25.315624Q26.05 23.784374 26.3625 22.8625Q26.675 21.925 27.284374 21.425Q27.909374 20.925 28.846874 20.925Q29.534374 20.925 30.05 21.20625Q30.58125 21.4875 30.925 22.01875Q31.26875 22.534374 31.45625 23.284374Q31.64375 24.034374 31.64375 25.315624Q31.64375 26.83125 31.33125 27.753124Q31.034374 28.675 30.409374 29.190624Q29.8 29.690624 28.846874 29.690624Q27.6125 29.690624 26.89375 28.8Q26.05 27.7375 26.05 25.315624ZM27.128124 25.315624Q27.128124 27.425 27.628124 28.128124Q28.128124 28.83125 28.846874 28.83125Q29.58125 28.83125 30.065624 28.128124Q30.565624 27.425 30.565624 25.315624Q30.565624 23.190624 30.065624 22.503124Q29.58125 21.8 28.83125 21.8Q28.1125 21.8 27.675 22.409374Q27.128124 23.190624 27.128124 25.315624ZM33.05 25.315624Q33.05 23.784374 33.3625 22.8625Q33.675 21.925 34.284374 21.425Q34.909374 20.925 35.846874 20.925Q36.534374 20.925 37.05 21.20625Q37.58125 21.4875 37.925 22.01875Q38.26875 22.534374 38.45625 23.284374Q38.64375 24.034374 38.64375 25.315624Q38.64375 26.83125 38.33125 27.753124Q38.034374 28.675 37.409374 29.190624Q36.8 29.690624 35.846874 29.690624Q34.6125 29.690624 33.89375 28.8Q33.05 27.7375 33.05 25.315624ZM34.128124 25.315624Q34.128124 27.425 34.628124 28.128124Q35.128124 28.83125 35.846874 28.83125Q36.58125 28.83125 37.065624 28.128124Q37.565624 27.425 37.565624 25.315624Q37.565624 23.190624 37.065624 22.503124Q36.58125 21.8 35.83125 21.8Q35.1125 21.8 34.675 22.409374Q34.128124 23.190624 34.128124 25.315624Z" fill-rule="nonzero"/><path fill="#000000" d="M112.91875 349.45L111.87187 349.45L111.87187 342.73126Q111.48125 343.09064 110.85625 343.46564Q110.24687 343.825 109.7625 343.9969L109.7625 342.98126Q110.6375 342.5594 111.29375 341.98126Q111.96562 341.3875 112.24687 340.825L112.91875 340.825L112.91875 349.45ZM115.95 345.21564Q115.95 343.6844 116.2625 342.7625Q116.575 341.825 117.18437 341.325Q117.80937 340.825 118.74687 340.825Q119.43437 340.825 119.95 341.10626Q120.48125 341.3875 120.825 341.91876Q121.16875 342.4344 121.35625 343.1844Q121.54375 343.9344 121.54375 345.21564Q121.54375 346.73126 121.23125 347.65314Q120.93437 348.575 120.30937 349.09064Q119.7 349.59064 118.74687 349.59064Q117.5125 349.59064 116.79375 348.7Q115.95 347.6375 115.95 345.21564ZM117.02812 345.21564Q117.02812 347.325 117.52812 348.02814Q118.02812 348.73126 118.74687 348.73126Q119.48125 348.73126 119.96562 348.02814Q120.46562 347.325 120.46562 345.21564Q120.46562 343.09064 119.96562 342.40314Q119.48125 341.7 118.73125 341.7Q118.0125 341.7 117.575 342.3094Q117.02812 343.09064 117.02812 345.21564Z" fill-rule="nonzero"/><path fill="#000000" d="M192.16354 348.4344L192.16354 349.45L186.47604 349.45Q186.47604 349.075 186.60104 348.71564Q186.8198 348.1375 187.28854 347.575Q187.77292 347.0125 188.67917 346.27814Q190.08542 345.1219 190.5698 344.45Q191.0698 343.77814 191.0698 343.1844Q191.0698 342.5594 190.61667 342.1375Q190.16354 341.7 189.4448 341.7Q188.67917 341.7 188.22604 342.15314Q187.77292 342.60626 187.7573 343.41876L186.67917 343.3094Q186.78854 342.09064 187.5073 341.46564Q188.24167 340.825 189.47604 340.825Q190.71042 340.825 191.42917 341.5125Q192.14792 342.2 192.14792 343.21564Q192.14792 343.73126 191.92917 344.23126Q191.72604 344.71564 191.22604 345.27814Q190.74167 345.825 189.61667 346.77814Q188.66354 347.575 188.3823 347.8719Q188.11667 348.15314 187.9448 348.4344L192.16354 348.4344ZM193.61667 345.21564Q193.61667 343.6844 193.92917 342.7625Q194.24167 341.825 194.85104 341.325Q195.47604 340.825 196.41354 340.825Q197.10104 340.825 197.61667 341.10626Q198.14792 341.3875 198.49167 341.91876Q198.83542 342.4344 199.02292 343.1844Q199.21042 343.9344 199.21042 345.21564Q199.21042 346.73126 198.89792 347.65314Q198.60104 348.575 197.97604 349.09064Q197.36667 349.59064 196.41354 349.59064Q195.17917 349.59064 194.46042 348.7Q193.61667 347.6375 193.61667 345.21564ZM194.6948 345.21564Q194.6948 347.325 195.1948 348.02814Q195.6948 348.73126 196.41354 348.73126Q197.14792 348.73126 197.6323 348.02814Q198.1323 347.325 198.1323 345.21564Q198.1323 343.09064 197.6323 342.40314Q197.14792 341.7 196.39792 341.7Q195.67917 341.7 195.24167 342.3094Q194.6948 343.09064 194.6948 345.21564Z" fill-rule="nonzero"/><path fill="#000000" d="M264.28333 347.1844L265.34583 347.04376Q265.5177 347.9344 265.9552 348.34064Q266.3927 348.73126 267.0177 348.73126Q267.7677 348.73126 268.28333 348.21564Q268.79895 347.7 268.79895 346.9344Q268.79895 346.21564 268.31458 345.7469Q267.84583 345.2625 267.11145 345.2625Q266.81458 345.2625 266.36145 345.3875L266.48645 344.45Q266.59583 344.46564 266.65833 344.46564Q267.3302 344.46564 267.86145 344.1219Q268.40833 343.7625 268.40833 343.02814Q268.40833 342.45 268.0177 342.075Q267.62708 341.6844 267.00208 341.6844Q266.3927 341.6844 265.97083 342.075Q265.56458 342.46564 265.4552 343.23126L264.3927 343.04376Q264.5802 341.9969 265.2677 341.41876Q265.9552 340.825 266.97083 340.825Q267.67395 340.825 268.2677 341.1375Q268.86145 341.4344 269.17395 341.95Q269.48645 342.46564 269.48645 343.0594Q269.48645 343.60626 269.18958 344.075Q268.8927 344.52814 268.31458 344.79376Q269.06458 344.96564 269.48645 345.52814Q269.90833 346.075 269.90833 346.91876Q269.90833 348.04376 269.0802 348.825Q268.2677 349.60626 267.0177 349.60626Q265.8927 349.60626 265.1427 348.9344Q264.3927 348.2469 264.28333 347.1844ZM271.28333 345.21564Q271.28333 343.6844 271.59583 342.7625Q271.90833 341.825 272.5177 341.325Q273.1427 340.825 274.0802 340.825Q274.7677 340.825 275.28333 341.10626Q275.81458 341.3875 276.15833 341.91876Q276.50208 342.4344 276.68958 343.1844Q276.87708 343.9344 276.87708 345.21564Q276.87708 346.73126 276.56458 347.65314Q276.2677 348.575 275.6427 349.09064Q275.03333 349.59064 274.0802 349.59064Q272.84583 349.59064 272.12708 348.7Q271.28333 347.6375 271.28333 345.21564ZM272.36145 345.21564Q272.36145 347.325 272.86145 348.02814Q273.36145 348.73126 274.0802 348.73126Q274.81458 348.73126 275.29895 348.02814Q275.79895 347.325 275.79895 345.21564Q275.79895 343.09064 275.29895 342.40314Q274.81458 341.7 274.06458 341.7Q273.34583 341.7 272.90833 342.3094Q272.36145 343.09064 272.36145 345.21564Z" fill-rule="nonzero"/><path fill="#000000" d="M345.325 349.45L345.325 347.3875L341.60626 347.3875L341.60626 346.41876L345.52814 340.85626L346.3875 340.85626L346.3875 346.41876L347.54376 346.41876L347.54376 347.3875L346.3875 347.3875L346.3875 349.45L345.325 349.45ZM345.325 346.41876L345.325 342.5594L342.6375 346.41876L345.325 346.41876ZM348.95 345.21564Q348.95 343.6844 349.2625 342.7625Q349.575 341.825 350.1844 341.325Q350.8094 340.825 351.7469 340.825Q352.4344 340.825 352.95 341.10626Q353.48126 341.3875 353.825 341.91876Q354.16876 342.4344 354.35626 343.1844Q354.54376 343.9344 354.54376 345.21564Q354.54376 346.73126 354.23126 347.65314Q353.9344 348.575 353.3094 349.09064Q352.7 349.59064 351.7469 349.59064Q350.5125 349.59064 349.79376 348.7Q348.95 347.6375 348.95 345.21564ZM350.02814 345.21564Q350.02814 347.325 350.52814 348.02814Q351.02814 348.73126 351.7469 348.73126Q352.48126 348.73126 352.96564 348.02814Q353.46564 347.325 353.46564 345.21564Q353.46564 343.09064 352.96564 342.40314Q352.48126 341.7 351.73126 341.7Q351.0125 341.7 350.575 342.3094Q350.02814 343.09064 350.02814 345.21564Z" fill-rule="nonzero"/><path fill="#000000" d="M419.61667 347.2L420.72604 347.10626Q420.85104 347.91876 421.28854 348.325Q421.74167 348.73126 422.3823 348.73126Q423.1323 348.73126 423.66354 348.15314Q424.1948 347.575 424.1948 346.6375Q424.1948 345.73126 423.67917 345.21564Q423.17917 344.6844 422.35104 344.6844Q421.85104 344.6844 421.42917 344.91876Q421.02292 345.15314 420.78854 345.5125L419.80417 345.3875L420.6323 340.98126L424.91354 340.98126L424.91354 341.98126L421.47604 341.98126L421.02292 344.29376Q421.78854 343.7469 422.6323 343.7469Q423.7573 343.7469 424.52292 344.52814Q425.30417 345.3094 425.30417 346.54376Q425.30417 347.7 424.6323 348.5594Q423.80417 349.59064 422.3823 349.59064Q421.21042 349.59064 420.46042 348.9344Q419.72604 348.27814 419.61667 347.2ZM426.61667 345.21564Q426.61667 343.6844 426.92917 342.7625Q427.24167 341.825 427.85104 341.325Q428.47604 340.825 429.41354 340.825Q430.10104 340.825 430.61667 341.10626Q431.14792 341.3875 431.49167 341.91876Q431.83542 342.4344 432.02292 343.1844Q432.21042 343.9344 432.21042 345.21564Q432.21042 346.73126 431.89792 347.65314Q431.60104 348.575 430.97604 349.09064Q430.36667 349.59064 429.41354 349.59064Q428.17917 349.59064 427.46042 348.7Q426.61667 347.6375 426.61667 345.21564ZM427.6948 345.21564Q427.6948 347.325 428.1948 348.02814Q428.6948 348.73126 429.41354 348.73126Q430.14792 348.73126 430.6323 348.02814Q431.1323 347.325 431.1323 345.21564Q431.1323 343.09064 430.6323 342.40314Q430.14792 341.7 429.39792 341.7Q428.67917 341.7 428.24167 342.3094Q427.6948 343.09064 427.6948 345.21564Z" fill-rule="nonzero"/><path fill="#000000" d="M502.75208 342.96564L501.7052 343.04376Q501.56458 342.41876 501.31458 342.1375Q500.87708 341.6844 500.25208 341.6844Q499.75208 341.6844 499.36145 341.96564Q498.87708 342.34064 498.5802 343.04376Q498.29895 343.73126 498.28333 345.0125Q498.65833 344.4344 499.2052 344.15314Q499.7677 343.8719 500.37708 343.8719Q501.42395 343.8719 502.15833 344.65314Q502.90833 345.4344 502.90833 346.65314Q502.90833 347.46564 502.54895 348.16876Q502.2052 348.85626 501.59583 349.23126Q500.98645 349.59064 500.22083 349.59064Q498.8927 349.59064 498.06458 348.6219Q497.23645 347.65314 497.23645 345.4344Q497.23645 342.9344 498.15833 341.8094Q498.9552 340.825 500.31458 340.825Q501.3302 340.825 501.97083 341.40314Q502.62708 341.96564 502.75208 342.96564ZM498.4552 346.66876Q498.4552 347.21564 498.67395 347.71564Q498.90833 348.2 499.31458 348.46564Q499.73645 348.73126 500.2052 348.73126Q500.86145 348.73126 501.34583 348.2Q501.8302 347.65314 501.8302 346.73126Q501.8302 345.84064 501.34583 345.325Q500.87708 344.8094 500.15833 344.8094Q499.43958 344.8094 498.93958 345.325Q498.4552 345.84064 498.4552 346.66876ZM504.28333 345.21564Q504.28333 343.6844 504.59583 342.7625Q504.90833 341.825 505.5177 341.325Q506.1427 340.825 507.0802 340.825Q507.7677 340.825 508.28333 341.10626Q508.81458 341.3875 509.15833 341.91876Q509.50208 342.4344 509.68958 343.1844Q509.87708 343.9344 509.87708 345.21564Q509.87708 346.73126 509.56458 347.65314Q509.2677 348.575 508.6427 349.09064Q508.03333 349.59064 507.0802 349.59064Q505.84583 349.59064 505.12708 348.7Q504.28333 347.6375 504.28333 345.21564ZM505.36145 345.21564Q505.36145 347.325 505.86145 348.02814Q506.36145 348.73126 507.0802 348.73126Q507.81458 348.73126 508.29895 348.02814Q508.79895 347.325 508.79895 345.21564Q508.79895 343.09064 508.29895 342.40314Q507.81458 341.7 507.06458 341.7Q506.34583 341.7 505.90833 342.3094Q505.36145 343.09064 505.36145 345.21564Z" fill-rule="nonzero"/><path fill="#000000" d="M575.0125 341.98126L575.0125 340.96564L580.575 340.96564L580.575 341.79376Q579.7625 342.66876 578.95 344.1219Q578.15314 345.5594 577.71564 347.09064Q577.3875 348.16876 577.3094 349.45L576.21564 349.45Q576.23126 348.4344 576.60626 346.9969Q576.9969 345.5594 577.7 344.23126Q578.41876 342.90314 579.23126 341.98126L575.0125 341.98126ZM581.95 345.21564Q581.95 343.6844 582.2625 342.7625Q582.575 341.825 583.1844 341.325Q583.8094 340.825 584.7469 340.825Q585.4344 340.825 585.95 341.10626Q586.48126 341.3875 586.825 341.91876Q587.16876 342.4344 587.35626 343.1844Q587.54376 343.9344 587.54376 345.21564Q587.54376 346.73126 587.23126 347.65314Q586.9344 348.575 586.3094 349.09064Q585.7 349.59064 584.7469 349.59064Q583.5125 349.59064 582.79376 348.7Q581.95 347.6375 581.95 345.21564ZM583.02814 345.21564Q583.02814 347.325 583.52814 348.02814Q584.02814 348.73126 584.7469 348.73126Q585.48126 348.73126 585.96564 348.02814Q586.46564 347.325 586.46564 345.21564Q586.46564 343.09064 585.96564 342.40314Q585.48126 341.7 584.73126 341.7Q584.0125 341.7 583.575 342.3094Q583.02814 343.09064 583.02814 345.21564Z" fill-rule="nonzero"/></svg>